<svg width="22" height="20" viewBox="0 0 22 20" fill="none" xmlns="http://www.w3.org/2000/svg">
<path d="M8.53256 19.5898C7.88312 19.5898 7.26028 19.3318 6.80105 18.8726C6.34183 18.4133 6.08384 17.7905 6.08384 17.1411C6.08384 16.4916 6.34183 15.8688 6.80105 15.4096C7.26028 14.9503 7.88312 14.6923 8.53256 14.6923C9.182 14.6923 9.80484 14.9503 10.2641 15.4096C10.7233 15.8688 10.9813 16.4916 10.9813 17.1411C10.9813 17.7905 10.7233 18.4133 10.2641 18.8726C9.80484 19.3318 9.182 19.5898 8.53256 19.5898ZM17.1031 19.5898C16.4537 19.5898 15.8308 19.3318 15.3716 18.8726C14.9124 18.4133 14.6544 17.7905 14.6544 17.1411C14.6544 16.4916 14.9124 15.8688 15.3716 15.4096C15.8308 14.9503 16.4537 14.6923 17.1031 14.6923C17.7525 14.6923 18.3754 14.9503 18.8346 15.4096C19.2938 15.8688 19.5518 16.4916 19.5518 17.1411C19.5518 17.7905 19.2938 18.4133 18.8346 18.8726C18.3754 19.3318 17.7525 19.5898 17.1031 19.5898ZM1.13987 2.35445C0.834218 2.34459 0.544386 2.21624 0.331662 1.99655C0.118938 1.77685 0 1.48303 0 1.17722C0 0.871417 0.118938 0.577598 0.331662 0.357902C0.544386 0.138206 0.834218 0.00985833 1.13987 0L2.54911 0C3.65348 0 4.60848 0.76645 4.84846 1.84389L6.38258 8.75174C6.62256 9.82918 7.57756 10.5956 8.68193 10.5956H17.8793L19.6449 3.53106H8.20321C7.90044 3.51724 7.61464 3.38724 7.40527 3.1681C7.1959 2.94895 7.07906 2.65753 7.07906 2.35445C7.07906 2.05136 7.1959 1.75994 7.40527 1.5408C7.61464 1.32165 7.90044 1.19165 8.20321 1.17784H19.6449C20.0028 1.17773 20.356 1.25923 20.6777 1.41614C20.9994 1.57305 21.2811 1.80123 21.5014 2.08335C21.7216 2.36547 21.8747 2.6941 21.9489 3.04425C22.0231 3.3944 22.0164 3.75685 21.9295 4.10406L20.164 11.1662C20.0367 11.6758 19.7427 12.1281 19.3287 12.4514C18.9147 12.7746 18.4046 12.9502 17.8793 12.9501H8.68193C7.61037 12.9502 6.5708 12.5849 5.73491 11.9144C4.89903 11.2439 4.31682 10.3084 4.08446 9.2623L2.54911 2.35445H1.13987Z" fill="#030303"/>
</svg>
