<svg width="29" height="19" viewBox="0 0 29 19" fill="none" xmlns="http://www.w3.org/2000/svg">
<path d="M18.561 14.3219C19.367 14.3219 20.1652 14.1631 20.9098 13.8546C21.6545 13.5462 22.3311 13.0941 22.901 12.5242C23.471 11.9542 23.9231 11.2776 24.2315 10.5329C24.54 9.78828 24.6987 8.99015 24.6987 8.18414C24.6987 7.37812 24.54 6.58 24.2315 5.83533C23.9231 5.09067 23.471 4.41406 22.901 3.84412C22.3311 3.27418 21.6545 2.82208 20.9098 2.51363C20.1652 2.20518 19.367 2.04642 18.561 2.04642C16.9332 2.04642 15.372 2.69307 14.221 3.84412C13.0699 4.99516 12.4233 6.55631 12.4233 8.18414C12.4233 9.81196 13.0699 11.3731 14.221 12.5242C15.372 13.6752 16.9332 14.3219 18.561 14.3219ZM25.0261 13.2027L28.6882 16.8649C28.7859 16.9593 28.8637 17.0723 28.9173 17.1971C28.9708 17.322 28.9989 17.4562 29 17.592C29.0011 17.7279 28.9751 17.8625 28.9236 17.9882C28.872 18.1139 28.796 18.2281 28.6999 18.324C28.6038 18.42 28.4895 18.4959 28.3638 18.5472C28.238 18.5986 28.1033 18.6244 27.9675 18.6231C27.8316 18.6218 27.6974 18.5935 27.5727 18.5398C27.4479 18.4861 27.3351 18.4081 27.2408 18.3103L23.5786 14.6482C21.9342 15.9247 19.8651 16.5265 17.7925 16.3311C15.72 16.1358 13.7998 15.1579 12.4228 13.5966C11.0459 12.0354 10.3157 10.008 10.3809 7.9273C10.4461 5.84659 11.3018 3.86894 12.7738 2.39693C14.2458 0.924926 16.2235 0.0692233 18.3042 0.0040192C20.3849 -0.0611849 22.4122 0.669011 23.9735 2.04596C25.5348 3.42291 26.5127 5.3431 26.708 7.41565C26.9034 9.48819 26.3015 11.5573 25.0251 13.2017L25.0261 13.2027Z" fill="#181725"/>
<rect width="9.05824" height="2.4543" rx="1.19961" fill="#181725"/>
<rect y="7.60896" width="6.61251" height="2.4543" rx="1.19961" fill="#181725"/>
<rect y="15.2182" width="9.05824" height="2.4543" rx="1.19961" fill="#181725"/>
</svg>
