<svg width="14" height="10" viewBox="0 0 14 10" fill="none" xmlns="http://www.w3.org/2000/svg">
<path fill-rule="evenodd" clip-rule="evenodd" d="M14 1.29012C14 1.64171 13.8617 1.97198 13.624 2.20171L6.06681 9.52246C5.80136 9.76513 5.4543 9.90476 5.10566 9.90476C4.75365 9.90476 4.40946 9.76286 4.16464 9.52621L0.37596 5.86396C0.138303 5.63423 0 5.30396 0 4.95237C0 4.61968 0.140574 4.29982 0.392298 4.04094C0.650474 3.80665 0.980131 3.67594 1.34079 3.66225C1.69253 3.66405 2.01928 3.79212 2.27829 4.02896L5.10566 6.76198L11.7217 0.36671C11.9807 0.129869 12.3075 0.00180495 12.6592 0C13.0223 0.0137792 13.3509 0.145968 13.6078 0.394253C13.8558 0.63397 14 0.952698 14 1.29012Z" fill="#FCFCFC"/>
</svg>
