<svg width="16" height="19" viewBox="0 0 16 19" fill="none" xmlns="http://www.w3.org/2000/svg">
<path fill-rule="evenodd" clip-rule="evenodd" d="M11.0301 0.640615C10.073 0.227306 9.0428 0.00979809 8.00028 0.000912955C6.95074 -0.0153391 5.90888 0.182147 4.93809 0.581347C3.9673 0.98055 3.0879 1.57312 2.35341 2.32299C0.862105 3.83323 0.0180146 5.86516 0.000278246 7.98754C-0.0174571 10.1099 0.792557 12.1557 2.25841 13.6906L7.07145 18.6725C7.16832 18.7742 7.28449 18.8555 7.41317 18.9117C7.54185 18.9678 7.68045 18.9978 7.82085 18.9997C7.96104 19.0029 8.10032 18.9763 8.22949 18.9218C8.35867 18.8672 8.4748 18.7858 8.57024 18.6831L13.4677 13.7751C14.9604 12.2662 15.8064 10.235 15.8262 8.11266C15.8459 5.99027 15.0377 3.94375 13.5733 2.40743C12.852 1.65467 11.9873 1.05392 11.0301 0.640615ZM7.83111 10.7835C9.24203 10.7835 10.3858 9.63972 10.3858 8.22879C10.3858 6.81787 9.24203 5.67409 7.83111 5.67409C6.42018 5.67409 5.2764 6.81787 5.2764 8.22879C5.2764 9.63972 6.42018 10.7835 7.83111 10.7835Z" fill="#4C4F4D"/>
</svg>
