<svg width="20" height="15" viewBox="0 0 20 15" fill="none" xmlns="http://www.w3.org/2000/svg">
<path d="M18.9961 3.75368L18.9958 3.75403L8.83614 13.969C8.45689 14.3295 7.95844 14.5393 7.45357 14.5393C6.94511 14.5393 6.44967 14.327 6.09685 13.973L1.00394 8.86335C0.658644 8.51691 0.460765 8.02248 0.460765 7.50002C0.460765 6.9982 0.665769 6.51991 1.02588 6.13684C1.39751 5.78547 1.87288 5.59017 2.39045 5.57044C2.89859 5.57243 3.3709 5.76479 3.7434 6.11894L7.12723 9.5139L7.45357 9.84132L7.77992 9.5139L16.2567 1.00928C16.6292 0.655127 17.1015 0.462761 17.6096 0.460781C18.1297 0.480607 18.604 0.677512 18.9743 1.04896C19.3304 1.40627 19.5393 1.88332 19.5393 2.39036C19.5393 2.91282 19.3414 3.40725 18.9961 3.75368Z" fill="#53B175" stroke="#FCFCFC" stroke-width="0.9"/>
</svg>
