<svg width="73" height="55" viewBox="0 0 73 55" fill="none" xmlns="http://www.w3.org/2000/svg">
<path fill-rule="evenodd" clip-rule="evenodd" d="M53.1285 52.6532C52.6038 53.1917 52.6078 54.0496 53.1463 54.5743C53.6815 55.1034 54.5427 55.095 55.0675 54.5565C55.6705 53.9446 56.1868 53.0534 56.6895 52.1163C56.3902 51.6928 56.1451 51.2267 55.9504 50.7503C54.8769 51.3496 53.819 51.9469 53.1285 52.6532ZM50.9989 46.8435C50.8078 47.5708 51.25 48.3103 51.9773 48.5014C52.9379 48.7469 54.1576 48.7135 55.3955 48.6659C55.3294 48.1695 55.3083 47.6515 55.3474 47.138C54.4157 46.583 53.502 46.0774 52.6602 45.8608C51.9261 45.6784 51.1822 46.1172 50.9989 46.8435ZM50.5695 51.1295C50.771 51.8513 51.5199 52.2782 52.2418 52.0766C53.3402 51.7723 54.5399 50.9745 55.7498 50.227C55.6862 50.0363 55.6314 49.8524 55.5844 49.6675C55.5511 49.5286 55.5169 49.3819 55.4826 49.2352C54.0574 49.2148 52.6107 49.1494 51.5122 49.4537C50.7904 49.6553 50.3679 50.4076 50.5695 51.1295Z" fill="#53B175"/>
<path d="M59.3146 44.0986C59.922 43.9988 60.5309 43.9425 61.155 43.9121C62.0315 43.866 62.9064 43.84 63.7765 43.8384C64.0803 44.6469 64.3582 45.1526 64.5005 45.1149C64.6272 45.0792 64.6247 44.5827 64.5004 43.8433C66.8074 43.8924 69.0988 44.1343 71.3712 44.6368C71.7267 44.7155 72.0681 44.8397 72.412 44.9517C72.5029 44.98 72.5778 45.0382 72.612 45.0578C73.0723 45.338 73.1109 45.5517 72.7921 45.9254C71.8013 47.0905 70.5474 47.9309 69.2837 48.7566C68.9384 48.9826 68.5887 49.2052 68.2347 49.4243C67.9264 48.6125 67.652 48.1024 67.5097 48.1401C67.3561 48.1831 67.3934 48.862 67.5896 49.8269C66.318 50.59 65.0118 51.2979 63.6561 51.8967C63.1869 50.2108 62.6218 48.9026 62.3954 48.9667C62.169 49.0308 62.3638 50.4608 62.8393 52.1657L62.8604 52.2386C62.4099 52.4182 61.9507 52.5909 61.4851 52.7445C60.9017 52.9407 60.2839 53.0537 59.6775 53.1614C58.8686 53.3023 58.1784 53.027 57.6585 52.3967C55.9914 50.3798 55.4918 48.1335 56.3754 45.6347C56.5582 45.127 56.9852 44.8232 57.4762 44.6187C57.8087 44.4817 58.1442 44.3682 58.4871 44.2816C58.9465 45.8892 59.4807 47.1099 59.6959 47.0512C59.9067 46.9891 59.7364 45.691 59.3146 44.0986Z" fill="#F3603F"/>
<g opacity="0.8">
<path d="M42.0624 39.486C43.4579 40.5712 44.7994 40.7173 46.1747 40.0842L46.2055 40.1082L45.692 40.7685C45.3223 41.244 45.4119 41.9282 45.8873 42.2979C46.3628 42.6676 47.0436 42.5824 47.4133 42.107L53.0923 34.8038C53.462 34.3284 53.3802 33.6432 52.9048 33.2735L52.8211 33.2084C52.3457 32.8387 51.6571 32.9249 51.2874 33.4003L47.9053 37.7496C46.7996 39.1715 45.2493 39.4847 43.889 38.427C42.5684 37.4 42.5301 36.1411 43.5947 34.7721L47.1582 30.1894C47.5279 29.714 47.4461 29.0288 46.9707 28.6591L46.887 28.594C46.4116 28.2243 45.7274 28.3139 45.3577 28.7894L41.5306 33.711C39.9149 35.7888 40.0682 37.9354 42.0624 39.486Z" fill="#181725"/>
<path d="M33.35 32.7395C35.8725 34.7009 38.9497 34.1411 41.144 31.3193C43.3416 28.4931 43.0821 25.4657 40.4672 23.4324C38.8472 22.1726 36.951 21.8495 35.4784 22.4987C34.9356 22.7335 34.8501 23.4794 35.3167 23.8423L35.7745 24.1983C36.0034 24.3763 36.3042 24.3982 36.5771 24.2926C37.3904 23.9643 38.4019 24.1716 39.2955 24.8665C40.7746 26.0167 40.9553 27.8101 39.7401 29.3729L39.6579 29.4785L33.8911 24.9942C33.5478 24.7272 33.0469 24.7899 32.7799 25.1332L32.7731 25.142C30.6473 27.8758 30.8716 30.8122 33.35 32.7395ZM38.653 30.7527C37.4735 32.0607 35.7964 32.2824 34.4978 31.2726C33.1859 30.2525 33.0224 28.6277 34.0748 27.1926L38.653 30.7527Z" fill="#181725"/>
<path d="M25.6651 16.959L26.1449 17.3321C26.4047 17.5341 26.7558 17.5458 27.0409 17.379C27.9731 16.8253 29.0183 16.9528 30.0308 17.7401C31.4791 18.8663 31.5492 20.7928 30.0396 22.7342C28.5642 24.6315 26.6588 25.0924 25.2061 23.9628C24.1584 23.1481 23.8624 22.0844 24.1513 21.1223C24.2462 20.8005 24.1552 20.4542 23.8866 20.2454L23.4068 19.8723C22.9886 19.5471 22.3577 19.7134 22.1861 20.2157C21.5906 21.9354 22.1068 23.9969 24.0393 25.4996C26.5881 27.4816 29.6869 26.9668 31.8709 24.1582C34.0925 21.3012 33.7758 18.2293 31.2137 16.237C29.378 14.8096 27.315 14.6464 25.7075 15.6781C25.2551 15.9692 25.2381 16.627 25.6651 16.959Z" fill="#181725"/>
<path d="M21.5157 11.1399C21.5431 11.1682 21.5749 11.2 21.6057 11.224C22.1453 11.7565 22.135 12.342 21.5942 13.0375L17.6747 18.078L16.6578 17.2872C16.2616 16.9791 15.6948 17.054 15.3901 17.4458C15.0854 17.8376 15.1559 18.401 15.5521 18.7091L16.569 19.4999L15.6893 20.6312C15.4976 20.8777 15.4242 21.181 15.4605 21.4705C15.4967 21.7601 15.6381 22.0325 15.889 22.2276C16.382 22.611 17.0976 22.5175 17.4809 22.0244L18.3607 20.8931L18.8978 21.3107C19.2895 21.6154 19.8574 21.5483 20.162 21.1565C20.4667 20.7647 20.3952 20.1935 20.0034 19.8888L19.4664 19.4712L23.5296 14.2458C24.8852 12.5026 24.7271 11.2706 22.9222 9.86711C22.9178 9.86369 22.9134 9.86027 22.9134 9.86027C22.7065 9.69938 22.4693 9.61381 22.2252 9.60063C22.2208 9.59721 22.213 9.59819 22.213 9.59819C21.9254 9.58648 21.6344 9.70634 21.4462 9.94846C21.1655 10.3094 21.1978 10.822 21.5157 11.1399Z" fill="#181725"/>
<path d="M9.65316 14.3129C11.0619 15.4083 12.669 15.7397 13.9514 15.317C14.1646 15.2427 14.3397 15.1174 14.4629 14.959C14.8052 14.5188 14.7714 13.8355 14.274 13.4487C13.9834 13.2228 13.5863 13.1612 13.2513 13.3104C12.5363 13.6303 11.6554 13.4822 10.8586 12.8626C9.65242 11.9247 9.40727 10.8228 10.2083 9.79271L10.2939 9.68265C10.5506 9.35249 11.0182 9.2781 11.362 9.51722L13.2931 10.8493C15.6301 12.4405 17.5615 12.4731 18.7904 10.8927C20.0433 9.28154 19.6225 7.25187 17.8176 5.84838C16.5894 4.89333 14.991 4.63232 13.7302 5.22719L13.6906 5.19638L14.1904 4.55367C14.3752 4.31595 14.4461 4.02493 14.4153 3.74665C14.3766 3.46934 14.2362 3.20476 13.9985 3.01991C13.523 2.65021 12.8388 2.73978 12.4691 3.21522L8.32712 8.54182C6.93733 10.3291 7.45209 12.6013 9.65316 14.3129ZM12.2827 7.125C13.2035 5.94083 14.8835 5.86973 16.2218 6.91036C17.2607 7.71822 17.5474 8.73941 16.9449 9.51419C16.3254 10.311 15.3266 10.269 14.0402 9.3888L11.7316 7.83375L12.2827 7.125Z" fill="#181725"/>
<path d="M0.30591 7.00189C1.37123 7.83029 2.67123 7.86634 3.73785 7.08516L3.76866 7.10912L3.25519 7.76944C2.88549 8.24487 2.97506 8.92909 3.44609 9.29537C3.92153 9.66507 4.60673 9.58332 4.97643 9.10789L10.6246 1.84435C10.8163 1.59783 10.8931 1.29018 10.8568 1.00064C10.8206 0.711107 10.6748 0.43528 10.4239 0.240161C9.92647 -0.146654 9.20655 -0.0565876 8.81973 0.440855L5.33497 4.92224C4.34568 6.19446 2.95719 6.43573 1.76861 5.51148C1.72019 5.47383 1.66737 5.43275 1.62237 5.3907C1.26286 5.08995 0.727311 5.16092 0.439767 5.5307L0.169338 5.87847C-0.10109 6.22624 -0.0418602 6.73146 0.30591 7.00189Z" fill="#181725"/>
</g>
<path d="M21.4461 9.94831C21.6344 9.70619 21.9254 9.58633 22.213 9.59804C22.213 9.59804 22.2208 9.59706 22.2252 9.60048C22.4013 9.61024 22.572 9.67234 22.7216 9.78873C23.1222 10.1002 23.1937 10.6715 22.8856 11.0677C22.5775 11.4639 22.0063 11.5353 21.6057 11.2238C21.5749 11.1999 21.5431 11.1681 21.5157 11.1397C21.1977 10.8218 21.1654 10.3093 21.4461 9.94831Z" fill="#181725"/>
</svg>
