<svg width="9" height="14" viewBox="0 0 9 14" fill="none" xmlns="http://www.w3.org/2000/svg">
<g clip-path="url(#clip0_1_1175)">
<path d="M0.339528 1.76842C0.142397 1.56842 0.032879 1.30526 0.0438311 1.03158C0.0438311 0.757894 0.153348 0.505262 0.361432 0.305262C0.558564 0.115788 0.832358 -1.61526e-06 1.1171 -1.59037e-06C1.40185 -1.56547e-06 1.67564 0.0947365 1.88373 0.28421L8.08242 6.2421C8.18099 6.33684 8.25765 6.45263 8.31241 6.57895C8.36717 6.70526 8.40003 6.8421 8.40003 6.97895C8.40003 7.11579 8.36717 7.25263 8.31241 7.38947C8.25765 7.51579 8.18099 7.63158 8.08242 7.72632L1.88373 13.6842C1.78516 13.7789 1.66469 13.8632 1.53327 13.9158C1.3909 13.9684 1.24852 14 1.10615 14C0.963778 14 0.810453 13.9789 0.679032 13.9263C0.547611 13.8737 0.427141 13.7895 0.317624 13.6947C0.219058 13.6 0.142396 13.4737 0.087637 13.3474C0.021926 13.2211 2.29682e-05 13.0842 2.29811e-05 12.9368C2.29931e-05 12.8 0.032878 12.6632 0.0876371 12.5368C0.142396 12.4105 0.23001 12.2947 0.339527 12.1895L5.76065 6.97895L4.73118 6L0.339528 1.76842Z" fill="#181725"/>
</g>
<defs>
<clipPath id="clip0_1_1175">
<rect width="8.4" height="14" fill="white" transform="translate(8.40002 14) rotate(-180)"/>
</clipPath>
</defs>
</svg>
