<svg width="23" height="22" viewBox="0 0 23 22" fill="none" xmlns="http://www.w3.org/2000/svg">
<path d="M17.0475 3.46345C17.335 3.18727 17.335 2.7395 17.0475 2.46335L14.8529 0.355389C14.5654 0.0792066 14.0992 0.0792428 13.8117 0.355389L0.369957 13.2667C0.0824654 13.5429 0.0824278 13.9906 0.369957 14.2668L2.56453 16.3748C2.85206 16.651 3.31822 16.6509 3.60571 16.3748C4.22612 15.7789 5.23596 15.7788 5.85639 16.3748C6.47682 16.9707 6.47682 17.9407 5.85639 18.5366C5.5689 18.8128 5.56886 19.2605 5.85639 19.5367L8.05096 21.6447C8.33849 21.9209 8.80466 21.9208 9.09215 21.6447L22.5339 8.73337C22.8215 8.45719 22.8214 8.00942 22.5339 7.73327L20.3394 5.62531C20.0518 5.34913 19.5857 5.34916 19.2982 5.62531C18.6778 6.22123 17.6679 6.22126 17.0475 5.62531C16.4271 5.02936 16.4271 4.0594 17.0475 3.46345ZM16.0063 6.62543C17.0217 7.60081 18.5779 7.74692 19.7555 7.06471L20.9722 8.23332L12.5492 16.3238L11.4239 15.2429C11.1364 14.9667 10.6702 14.9668 10.3827 15.2429C10.0952 15.5191 10.0952 15.9668 10.3827 16.243L11.5081 17.3239L8.57156 20.1445L7.35493 18.9759C8.06514 17.8447 7.91303 16.35 6.89758 15.3747C5.88214 14.3993 4.32603 14.2532 3.14836 14.9354L1.93174 13.7668L4.86821 10.9462L5.99355 12.0271C6.28108 12.3033 6.74725 12.3032 7.03474 12.0271C7.32223 11.751 7.32224 11.3032 7.03474 11.027L5.9094 9.94607L14.3323 1.85556L15.5489 3.02418C14.8387 4.15539 14.9908 5.65006 16.0063 6.62543Z" fill="#181725" stroke="#181725" stroke-width="0.3"/>
<path d="M7.63935 12.608C7.35188 12.8841 7.35192 13.3318 7.63935 13.6078L8.73632 14.6615C9.02378 14.9376 9.48983 14.9376 9.77726 14.6615C10.0647 14.3854 10.0647 13.9377 9.77726 13.6616L8.6803 12.608C8.6803 12.608 8.68029 12.608 8.68029 12.608C8.39288 12.3318 7.92679 12.3319 7.63935 12.608Z" fill="#181725" stroke="#181725" stroke-width="0.3"/>
</svg>
