<svg width="19" height="23" viewBox="0 0 19 23" fill="none" xmlns="http://www.w3.org/2000/svg">
<path fill-rule="evenodd" clip-rule="evenodd" d="M1.01007 9.54362C1.02601 4.81463 4.83997 0.994059 9.52881 1.01013C14.2176 1.02619 18.0058 4.87282 17.9898 9.6018V9.69877C17.9322 12.7728 16.2303 15.614 14.1439 17.8347C12.9507 19.0844 11.6182 20.1907 10.173 21.1317C9.78656 21.4688 9.21336 21.4688 8.82692 21.1317C6.67246 19.7174 4.78156 17.9318 3.24071 15.8565C1.86738 14.0468 1.08766 11.8503 1.01007 9.57271L1.01007 9.54362Z" stroke="#181725" stroke-width="2" stroke-linecap="round" stroke-linejoin="round"/>
<path fill-rule="evenodd" clip-rule="evenodd" d="M9.50005 12.0936C10.8063 12.0936 11.8651 11.0257 11.8651 9.70827C11.8651 8.39088 10.8063 7.32292 9.50005 7.32292C8.19384 7.32292 7.13495 8.39088 7.13495 9.70827C7.13495 11.0257 8.19384 12.0936 9.50005 12.0936Z" stroke="#181725" stroke-width="2" stroke-linecap="round" stroke-linejoin="round"/>
</svg>
