<svg width="22" height="20" viewBox="0 0 22 20" fill="none" xmlns="http://www.w3.org/2000/svg">
<path d="M8.53255 19.5898C7.88311 19.5898 7.26027 19.3318 6.80104 18.8725C6.34182 18.4133 6.08383 17.7905 6.08383 17.141C6.08383 16.4916 6.34182 15.8688 6.80104 15.4095C7.26027 14.9503 7.88311 14.6923 8.53255 14.6923C9.18199 14.6923 9.80483 14.9503 10.2641 15.4095C10.7233 15.8688 10.9813 16.4916 10.9813 17.141C10.9813 17.7905 10.7233 18.4133 10.2641 18.8725C9.80483 19.3318 9.18199 19.5898 8.53255 19.5898ZM17.1031 19.5898C16.4536 19.5898 15.8308 19.3318 15.3716 18.8725C14.9123 18.4133 14.6543 17.7905 14.6543 17.141C14.6543 16.4916 14.9123 15.8688 15.3716 15.4095C15.8308 14.9503 16.4536 14.6923 17.1031 14.6923C17.7525 14.6923 18.3754 14.9503 18.8346 15.4095C19.2938 15.8688 19.5518 16.4916 19.5518 17.141C19.5518 17.7905 19.2938 18.4133 18.8346 18.8725C18.3754 19.3318 17.7525 19.5898 17.1031 19.5898ZM1.13986 2.35444C0.834217 2.34459 0.544386 2.21624 0.331662 1.99654C0.118938 1.77685 0 1.48303 0 1.17722C0 0.871416 0.118938 0.577598 0.331662 0.357902C0.544386 0.138206 0.834217 0.00985832 1.13986 0L2.5491 0C3.65347 0 4.60848 0.766449 4.84845 1.84389L6.38257 8.75173C6.62255 9.82916 7.57755 10.5956 8.68192 10.5956H17.8793L19.6448 3.53105H8.2032C7.90043 3.51724 7.61463 3.38724 7.40526 3.16809C7.19589 2.94895 7.07905 2.65753 7.07905 2.35444C7.07905 2.05136 7.19589 1.75994 7.40526 1.54079C7.61463 1.32165 7.90043 1.19165 8.2032 1.17783H19.6448C20.0028 1.17773 20.356 1.25923 20.6777 1.41614C20.9994 1.57304 21.2811 1.80123 21.5013 2.08335C21.7216 2.36547 21.8747 2.6941 21.9488 3.04424C22.023 3.39439 22.0164 3.75685 21.9295 4.10405L20.164 11.1662C20.0367 11.6757 19.7427 12.1281 19.3287 12.4514C18.9147 12.7746 18.4045 12.9501 17.8793 12.9501H8.68192C7.61035 12.9502 6.57079 12.5849 5.7349 11.9144C4.89902 11.2439 4.31682 10.3084 4.08445 9.26228L2.5491 2.35444H1.13986Z" fill="#181725"/>
</svg>
