<svg width="15" height="9" viewBox="0 0 15 9" fill="none" xmlns="http://www.w3.org/2000/svg">
<path d="M12.6423 0.478921L12.6423 0.478897L12.6404 0.480796L8.31268 4.97227L8.31221 4.97275L7.38473 5.9481L2.12991 0.480889C2.01547 0.361822 1.88624 0.263018 1.74159 0.200309C1.60172 0.139673 1.44793 0.102265 1.29182 0.102265C1.13231 0.102265 0.975658 0.125771 0.828031 0.201723C0.691919 0.261099 0.551265 0.345806 0.442962 0.458486L0.44286 0.458388L0.439348 0.462449C0.338318 0.579242 0.244493 0.712185 0.184913 0.860958C0.124872 1.01088 0.102223 1.18145 0.102223 1.33581C0.102223 1.49656 0.137873 1.65439 0.194692 1.8081L0.194658 1.80811L0.195678 1.81066C0.255257 1.95942 0.349476 2.09346 0.453727 2.20193L6.54704 8.54151C6.65441 8.65322 6.78451 8.73896 6.92459 8.79969L6.92458 8.79973L6.92727 8.8008C7.07569 8.86019 7.22876 8.89773 7.38513 8.89773C7.54124 8.89773 7.69503 8.86032 7.8349 8.79969C7.97498 8.73896 8.10508 8.65322 8.21245 8.54151L14.3058 2.20193L14.3058 2.20195L14.3076 2.19991C14.5205 1.96616 14.625 1.66069 14.625 1.34701C14.625 1.02857 14.4958 0.723371 14.2842 0.503289C14.0618 0.271874 13.7779 0.147615 13.4697 0.14707C13.16 0.135274 12.8648 0.259625 12.6423 0.478921Z" fill="#181725" stroke="#181725" stroke-width="0.2"/>
</svg>
