<svg width="20" height="16" viewBox="0 0 20 16" fill="none" xmlns="http://www.w3.org/2000/svg">
<path d="M2 2.04512H1.9V2.14512V12.8707V12.9707H2H18H18.1V12.8707V2.14512V2.04512H18H2ZM2 0.1H18C18.5016 0.1 18.9841 0.313638 19.3411 0.696485C19.6982 1.07957 19.9 1.60055 19.9 2.14512V12.8707C19.9 13.4153 19.6982 13.9363 19.3411 14.3194C18.9841 14.7022 18.5016 14.9159 18 14.9159H2C1.49844 14.9159 1.01587 14.7022 0.658928 14.3194C0.30176 13.9363 0.1 13.4153 0.1 12.8707V2.14512C0.1 1.60055 0.30176 1.07957 0.658928 0.696485C1.01587 0.313638 1.49844 0.1 2 0.1ZM11 4.39025H16C16.2363 4.39025 16.4646 4.49088 16.634 4.67259C16.8036 4.85453 16.9 5.1027 16.9 5.36281C16.9 5.62292 16.8036 5.87109 16.634 6.05303C16.4646 6.23473 16.2363 6.33537 16 6.33537H11C10.7637 6.33537 10.5354 6.23473 10.366 6.05303C10.1964 5.87109 10.1 5.62292 10.1 5.36281C10.1 5.1027 10.1964 4.85453 10.366 4.67259C10.5354 4.49088 10.7637 4.39025 11 4.39025ZM11 7.60793H16C16.2363 7.60793 16.4646 7.70857 16.634 7.89027C16.8036 8.07221 16.9 8.32038 16.9 8.58049C16.9 8.8406 16.8036 9.08878 16.634 9.27072C16.4646 9.45242 16.2363 9.55305 16 9.55305H11C10.7637 9.55305 10.5354 9.45242 10.366 9.27072C10.1964 9.08878 10.1 8.8406 10.1 8.58049C10.1 8.32038 10.1964 8.07221 10.366 7.89027C10.5354 7.70857 10.7637 7.60793 11 7.60793Z" fill="#181725" stroke="white" stroke-width="0.2"/>
<g clip-path="url(#clip0_1_1299)">
<path d="M6.75023 5.19572V5.75842C6.75023 6.06283 6.61264 6.3488 6.37416 6.55174C6.1265 6.76391 5.80547 6.88383 5.46609 6.88383C5.12671 6.88383 4.7965 6.76391 4.55802 6.55174C4.31953 6.3488 4.18195 6.06283 4.18195 5.75842V5.19572C4.18195 4.90053 4.31953 4.61457 4.55802 4.4024C4.7965 4.19023 5.12671 4.07031 5.46609 4.07031C5.80547 4.07031 6.1265 4.19023 6.37416 4.4024C6.61264 4.61457 6.75023 4.90053 6.75023 5.19572Z" fill="#181725"/>
<path d="M7.71337 8.5165V8.97773C7.71337 9.19913 7.6033 9.42052 7.42903 9.57734C7.24558 9.73415 6.99792 9.8264 6.75026 9.8264H4.18198C3.92515 9.8264 3.67749 9.73415 3.50322 9.57734C3.31977 9.42052 3.21887 9.19913 3.21887 8.97773V8.48883C3.21887 8.17519 3.32894 7.86155 3.53074 7.60326C3.73253 7.34497 4.01687 7.14203 4.34708 7.02211C4.39295 7.01289 4.42964 7.00366 4.4755 7.00366C4.52136 7.00366 4.55805 7.01289 4.60391 7.02211H6.24578C6.26412 7.02211 6.2733 7.02211 6.28247 7.03134C6.28247 7.02211 6.29164 7.02211 6.29164 7.02211C6.4384 7.01289 6.53013 7.02211 6.5393 7.02211C6.88785 7.14203 7.18137 7.34497 7.39234 7.61249C7.59413 7.88 7.71337 8.19364 7.71337 8.5165Z" fill="#181725"/>
</g>
<defs>
<clipPath id="clip0_1_1299">
<rect width="6" height="7.68429" fill="white" transform="translate(3 4.07031)"/>
</clipPath>
</defs>
</svg>
