<svg width="23" height="25" viewBox="0 0 23 25" fill="none" xmlns="http://www.w3.org/2000/svg">
<path d="M23 12.325C23 11.3336 22.9217 10.6102 22.7523 9.85999H11.7347V14.3345H18.2018C18.0714 15.4464 17.3673 17.121 15.8027 18.2463L15.7807 18.3961L19.2643 21.1689L19.5057 21.1937C21.7222 19.0903 23 15.9957 23 12.325Z" fill="white"/>
<path d="M11.7347 24.1141C14.9031 24.1141 17.5629 23.0423 19.5057 21.1936L15.8028 18.2462C14.8118 18.9563 13.4819 19.4519 11.7347 19.4519C8.63159 19.4519 5.99781 17.3487 5.05895 14.4416L4.92133 14.4536L1.29907 17.3339L1.2517 17.4692C3.18139 21.4079 7.14513 24.1141 11.7347 24.1141Z" fill="white"/>
<path d="M5.05892 14.4416C4.81119 13.6914 4.66782 12.8875 4.66782 12.057C4.66782 11.2263 4.81119 10.4225 5.04588 9.67233L5.03932 9.51255L1.37167 6.58597L1.25167 6.64461C0.456355 8.27904 0 10.1144 0 12.057C0 13.9995 0.456355 15.8348 1.25167 17.4692L5.05892 14.4416Z" fill="white"/>
<path d="M11.7351 4.66205C13.9386 4.66205 15.425 5.64001 16.2725 6.45727L19.5843 3.13485C17.5503 1.19232 14.9034 0 11.7351 0C7.14549 0 3.18176 2.70613 1.25207 6.64475L5.04628 9.67246C5.99818 6.76537 8.63195 4.66205 11.7351 4.66205Z" fill="white"/>
</svg>
