<svg width="8" height="8" viewBox="0 0 8 8" fill="none" xmlns="http://www.w3.org/2000/svg">
<path d="M7.74165 6.78969L7.74167 6.78968L7.74063 6.78868L5.32885 4.46481L5.32858 4.46456L4.80555 3.96719L7.74058 1.14617C7.80458 1.08466 7.85771 1.01517 7.89145 0.937359C7.92405 0.862157 7.94417 0.779459 7.94417 0.695485C7.94417 0.609754 7.93154 0.52549 7.89067 0.446055C7.85876 0.372905 7.81322 0.297276 7.75261 0.23902L7.75266 0.238964L7.75045 0.237047C7.68769 0.18276 7.61622 0.132311 7.5362 0.100267C7.45556 0.0679718 7.36385 0.0558 7.28088 0.0558C7.19443 0.0558 7.10957 0.0749727 7.02696 0.10551L7.02696 0.105491L7.02557 0.106048C6.94555 0.138091 6.87348 0.188755 6.81517 0.2448L3.41102 3.51672C3.35093 3.57447 3.30483 3.64443 3.27218 3.71975L3.27216 3.71974L3.27157 3.72121C3.23965 3.80098 3.21946 3.88329 3.21946 3.9674C3.21946 4.05138 3.23958 4.13407 3.27218 4.20928C3.30483 4.28459 3.35093 4.35456 3.41102 4.41231L6.81517 7.68422L6.81516 7.68424L6.81627 7.68525C6.94198 7.79971 7.10623 7.85588 7.27487 7.85588C7.4461 7.85588 7.61021 7.78641 7.72855 7.67266C7.85298 7.55307 7.91981 7.40041 7.92011 7.23465C7.92645 7.06806 7.85957 6.90932 7.74165 6.78969Z" fill="white" stroke="white" stroke-width="0.1"/>
<path d="M0.258348 1.122L0.258334 1.12202L0.259371 1.12301L2.67115 3.44689L2.67142 3.44714L3.19446 3.94451L0.259421 6.76553C0.195423 6.82704 0.142287 6.89652 0.108554 6.97434C0.0759537 7.04954 0.0558328 7.13224 0.0558328 7.21621C0.0558328 7.30194 0.0684648 7.38621 0.109326 7.46564C0.141239 7.53879 0.186781 7.61442 0.247392 7.67268L0.247338 7.67273L0.249554 7.67465C0.312311 7.72894 0.383784 7.77939 0.463799 7.81143C0.544439 7.84372 0.636154 7.8559 0.719116 7.8559C0.805573 7.8559 0.890431 7.83672 0.973036 7.80619L0.973043 7.80621L0.974433 7.80565C1.05445 7.77361 1.12652 7.72294 1.18483 7.6669L4.58898 4.39498C4.64907 4.33723 4.69517 4.26727 4.72782 4.19195L4.72784 4.19196L4.72843 4.19049C4.76035 4.11072 4.78054 4.02841 4.78054 3.94429C4.78054 3.86032 4.76042 3.77762 4.72782 3.70242C4.69517 3.6271 4.64907 3.55714 4.58899 3.49939L1.18483 0.227474L1.18484 0.227459L1.18373 0.226445C1.05802 0.111982 0.89377 0.0558154 0.725131 0.0558154C0.553899 0.0558154 0.389791 0.125291 0.27145 0.239035C0.147022 0.358629 0.0801896 0.511282 0.0798919 0.677047C0.0735525 0.843633 0.140435 1.00237 0.258348 1.122Z" fill="white" stroke="white" stroke-width="0.1"/>
</svg>
