<svg width="46" height="16" viewBox="0 0 46 16" fill="none" xmlns="http://www.w3.org/2000/svg">
<path d="M20.6316 0H10.807H0.98247C0.439881 0 0 0.43988 0 0.98247V15.0175C0 15.5601 0.439881 16 0.98247 16H10.807H20.6316C21.1742 16 21.6141 15.5601 21.6141 15.0175V0.98247C21.6141 0.43988 21.1742 0 20.6316 0Z" fill="#5286F9"/>
<path d="M11.5579 5.2042C11.7738 5.45158 11.9619 5.72387 12.1167 6.0165C12.4302 6.60924 12.6087 7.28405 12.6087 8.00002C12.6087 8.71599 12.4302 9.39071 12.1167 9.98353C11.9619 10.2762 11.7738 10.5484 11.5579 10.7958C11.3357 11.0503 11.0838 11.2781 10.8075 11.4741C11.5021 11.9665 12.3493 12.2573 13.2636 12.2573C15.6111 12.2573 17.521 10.3475 17.521 8.00002C17.521 5.65257 15.6111 3.74268 13.2636 3.74268C12.3493 3.74268 11.5021 4.03337 10.8075 4.52589C11.0838 4.72185 11.3356 4.94969 11.5579 5.2042Z" fill="#FFB655"/>
<path d="M12.117 6.01654C11.9622 5.72382 11.7742 5.45162 11.5582 5.20424C11.3359 4.94964 11.0841 4.72193 10.8078 4.52601C10.1133 4.03349 9.266 3.7428 8.35166 3.7428C6.00417 3.7428 4.09436 5.65265 4.09436 8.0001C4.09436 10.3475 6.00421 12.2574 8.35166 12.2574C9.266 12.2574 10.1133 11.9667 10.8078 11.4742C11.0842 11.2783 11.3359 11.0504 11.5582 10.7959C11.7742 10.5485 11.9622 10.2762 12.117 9.9837C12.4305 9.39087 12.609 8.71606 12.609 8.00018C12.609 7.28405 12.4305 6.60928 12.117 6.01654Z" fill="#D8143A"/>
<path d="M8.35089 12.2574C6.0034 12.2574 4.09359 10.3476 4.09359 8.00013C4.09359 5.65268 6.00344 3.74283 8.35089 3.74283C9.26523 3.74283 10.1124 4.03352 10.807 4.52604V0H0.98247C0.439881 0 0 0.43988 0 0.98247V15.0175C0 15.5601 0.439881 16 0.98247 16H10.807V11.4741C10.1124 11.9666 9.26523 12.2574 8.35089 12.2574Z" fill="#3D6DEB"/>
<g clip-path="url(#clip0_1_1655)">
<path d="M36.9537 2.76842C36.7565 2.56842 36.647 2.30526 36.658 2.03158C36.658 1.75789 36.7675 1.50526 36.9756 1.30526C37.1727 1.11579 37.4465 0.999998 37.7312 0.999998C38.016 0.999998 38.2898 1.09474 38.4979 1.28421L44.6966 7.2421C44.7951 7.33684 44.8718 7.45263 44.9265 7.57895C44.9813 7.70526 45.0142 7.8421 45.0142 7.97895C45.0142 8.11579 44.9813 8.25263 44.9265 8.38947C44.8718 8.51579 44.7951 8.63158 44.6966 8.72632L38.4979 14.6842C38.3993 14.7789 38.2788 14.8632 38.1474 14.9158C38.005 14.9684 37.8627 15 37.7203 15C37.5779 15 37.4246 14.9789 37.2932 14.9263C37.1617 14.8737 37.0413 14.7895 36.9318 14.6947C36.8332 14.6 36.7565 14.4737 36.7018 14.3474C36.6361 14.2211 36.6142 14.0842 36.6142 13.9368C36.6142 13.8 36.647 13.6632 36.7018 13.5368C36.7565 13.4105 36.8441 13.2947 36.9537 13.1895L42.3748 7.97895L41.3453 7L36.9537 2.76842Z" fill="#181725"/>
</g>
<defs>
<clipPath id="clip0_1_1655">
<rect width="8.4" height="14" fill="white" transform="translate(45.0142 15) rotate(-180)"/>
</clipPath>
</defs>
</svg>
