<svg width="49" height="57" viewBox="0 0 49 57" fill="none" xmlns="http://www.w3.org/2000/svg">
<path fill-rule="evenodd" clip-rule="evenodd" d="M33.3221 4.43145C33.5668 2.24624 32.0175 0.273025 29.8323 0.0284119C27.6471 -0.232509 25.6739 1.33302 25.4293 3.51823C25.1357 6.01329 25.5434 8.99757 26.0653 12.0634C27.5166 12.5037 28.9191 13.1397 30.2237 13.8898C31.6262 10.5794 32.996 7.30158 33.3221 4.43145ZM48.6676 14.0203C47.8033 11.9982 45.455 11.0849 43.4328 11.9492C40.7747 13.1071 38.0187 15.3738 35.2464 17.7058C36.2901 18.7332 37.2686 19.891 38.1003 21.1467C41.2476 20.7553 44.2645 20.2824 46.5965 19.2713C48.6186 18.3744 49.5482 16.0261 48.6676 14.0203ZM41.9651 3.35515C40.2039 2.05055 37.7089 2.40932 36.4043 4.17053C34.4147 6.84497 33.0775 10.8403 31.6262 14.7378C32.1154 15.064 32.572 15.3901 33.0123 15.7326C33.3384 15.9935 33.6809 16.2707 34.0234 16.548C37.3501 14.0366 40.8073 11.5905 42.7968 8.91603C44.1014 7.15482 43.7264 4.65976 41.9651 3.35515Z" fill="white"/>
<path d="M34.3985 35.2853C33.1754 36.6062 31.8708 37.8293 30.4846 39.0198C28.544 40.6994 26.5708 42.3302 24.565 43.8957C22.4124 42.5748 20.8632 41.9062 20.6023 42.2487C20.374 42.5585 21.2709 43.7 22.8853 45.184C17.4712 49.212 11.7473 52.767 5.59931 55.6861C4.63716 56.1427 3.62609 56.4688 2.63133 56.8276C2.37041 56.9255 2.09318 56.9255 1.97903 56.9418C0.413501 57.1211 -0.0594182 56.6972 0.00581204 55.2621C0.201503 50.7938 1.58765 46.6028 3.02271 42.428C3.41409 41.2865 3.82178 40.145 4.24578 39.0035C6.41468 40.3244 7.9639 41.0093 8.22482 40.6668C8.50205 40.2917 7.19745 38.7915 5.01223 36.9161C6.57776 32.8718 8.32267 28.8928 10.3774 25.0768C14.4869 28.1263 18.1398 30.1321 18.5475 29.5777C18.9552 29.0232 15.9383 26.0716 11.7799 22.9894L11.6005 22.859C12.318 21.6359 13.0682 20.4128 13.8672 19.2224C14.862 17.7221 16.0851 16.3522 17.2918 15.015C18.9063 13.2375 20.9936 12.6341 23.3256 13.156C30.7945 14.8193 35.9803 19.1082 38.4264 26.4629C38.9157 27.9632 38.4754 29.4309 37.7089 30.7844C37.1871 31.6977 36.6163 32.562 35.9803 33.3773C32.0339 30.4909 28.6093 28.6318 28.2179 29.1537C27.8428 29.6755 30.5662 32.3663 34.3985 35.2853Z" fill="white"/>
</svg>
