<svg width="20" height="19" viewBox="0 0 20 19" fill="none" xmlns="http://www.w3.org/2000/svg">
<path d="M15.398 6.81529L16.87 5.34329C18.749 6.42729 20 7.9253 20 9.5853C20 12.8993 15.042 15.5783 10 15.5853C8.97398 15.5852 7.95076 15.478 6.94701 15.2653L8.69401 13.5193C9.12001 13.5633 9.55601 13.5863 9.99701 13.5853H9.99901C9.58401 13.5853 9.18401 13.5223 8.80801 13.4053L10.789 11.4233C11.259 11.2213 11.636 10.8443 11.839 10.3743L13.819 8.3933C14.0054 8.99042 14.0492 9.62294 13.9468 10.24C13.8444 10.8572 13.5988 11.4417 13.2295 11.9466C12.8602 12.4515 12.3777 12.8628 11.8206 13.1474C11.2636 13.432 10.6475 13.582 10.022 13.5853C14.267 13.5703 18 11.4013 18 9.5853C18 8.6423 16.978 7.5993 15.398 6.81529ZM6.09601 10.4603C5.96495 9.87571 5.96689 9.26914 6.10167 8.6854C6.23645 8.10166 6.50064 7.55564 6.87472 7.08768C7.2488 6.61972 7.72322 6.24177 8.26294 5.98173C8.80267 5.72169 9.39391 5.58621 9.99301 5.58529C5.77501 5.57029 2 7.7633 2 9.5853C2 10.4813 2.904 11.4623 4.327 12.2293L2.869 13.6853C1.134 12.6133 0 11.1703 0 9.5853C0 6.27129 4.98401 3.56829 10 3.58529C10.914 3.58829 11.827 3.67929 12.709 3.84729L10.932 5.62329C10.642 5.60129 10.348 5.58829 10.052 5.58529C10.334 5.58929 10.609 5.62229 10.875 5.68129L6.09501 10.4603H6.09601ZM19.092 0.292287C19.2795 0.479815 19.3848 0.734123 19.3848 0.999288C19.3848 1.26445 19.2795 1.51876 19.092 1.70629L2.122 18.6763C2.02982 18.7719 1.91953 18.8481 1.79757 18.9006C1.6756 18.9531 1.5444 18.9808 1.41162 18.9821C1.27884 18.9833 1.14715 18.9581 1.02422 18.9079C0.901287 18.8577 0.789583 18.7835 0.695625 18.6897C0.601667 18.5959 0.527335 18.4843 0.476967 18.3614C0.426599 18.2386 0.401204 18.1069 0.402263 17.9741C0.403322 17.8413 0.430814 17.7101 0.483135 17.5881C0.535456 17.466 0.611558 17.3556 0.707001 17.2633L17.677 0.293287C17.7699 0.20031 17.8802 0.126551 18.0016 0.076227C18.123 0.0259027 18.2531 0 18.3845 0C18.5159 0 18.6461 0.0259027 18.7675 0.076227C18.8889 0.126551 18.9991 0.20031 19.092 0.293287V0.292287Z" fill="#7C7C7C"/>
</svg>
