<svg width="22" height="20" viewBox="0 0 22 20" fill="none" xmlns="http://www.w3.org/2000/svg">
<path d="M8.5326 19.5899C7.88315 19.5899 7.26031 19.3319 6.80108 18.8727C6.34185 18.4134 6.08386 17.7906 6.08386 17.1411C6.08386 16.4917 6.34185 15.8688 6.80108 15.4096C7.26031 14.9504 7.88315 14.6924 8.5326 14.6924C9.18204 14.6924 9.80489 14.9504 10.2641 15.4096C10.7233 15.8688 10.9813 16.4917 10.9813 17.1411C10.9813 17.7906 10.7233 18.4134 10.2641 18.8727C9.80489 19.3319 9.18204 19.5899 8.5326 19.5899ZM17.1032 19.5899C16.4537 19.5899 15.8309 19.3319 15.3716 18.8727C14.9124 18.4134 14.6544 17.7906 14.6544 17.1411C14.6544 16.4917 14.9124 15.8688 15.3716 15.4096C15.8309 14.9504 16.4537 14.6924 17.1032 14.6924C17.7526 14.6924 18.3755 14.9504 18.8347 15.4096C19.2939 15.8688 19.5519 16.4917 19.5519 17.1411C19.5519 17.7906 19.2939 18.4134 18.8347 18.8727C18.3755 19.3319 17.7526 19.5899 17.1032 19.5899ZM1.13987 2.35446C0.834221 2.3446 0.544389 2.21625 0.331664 1.99655C0.118939 1.77686 0 1.48304 0 1.17723C0 0.871421 0.118939 0.577601 0.331664 0.357904C0.544389 0.138207 0.834221 0.00985837 1.13987 0L2.54912 0C3.6535 0 4.6085 0.766454 4.84848 1.8439L6.38261 8.75177C6.62258 9.82922 7.57759 10.5957 8.68197 10.5957H17.8794L19.6449 3.53107H8.20324C7.90047 3.51726 7.61468 3.38726 7.4053 3.16811C7.19593 2.94897 7.07909 2.65754 7.07909 2.35446C7.07909 2.05137 7.19593 1.75995 7.4053 1.5408C7.61468 1.32166 7.90047 1.19166 8.20324 1.17784H19.6449C20.0029 1.17774 20.3561 1.25923 20.6778 1.41614C20.9995 1.57305 21.2812 1.80124 21.5015 2.08336C21.7217 2.36548 21.8748 2.69411 21.949 3.04426C22.0232 3.39441 22.0165 3.75687 21.9296 4.10408L20.1641 11.1662C20.0368 11.6758 19.7428 12.1282 19.3288 12.4514C18.9148 12.7747 18.4046 12.9502 17.8794 12.9501H8.68197C7.6104 12.9503 6.57082 12.5849 5.73493 11.9144C4.89905 11.2439 4.31684 10.3084 4.08447 9.26233L2.54912 2.35446H1.13987Z" fill="#53B175"/>
</svg>
