<svg width="9" height="15" viewBox="0 0 9 15" fill="none" xmlns="http://www.w3.org/2000/svg">
<path d="M0.478908 2.08497L0.478884 2.08499L0.480783 2.08682L4.97228 6.41461L4.97277 6.41507L5.94812 7.34256L0.480876 12.5974C0.361808 12.7119 0.263004 12.8411 0.200294 12.9857C0.139658 13.1256 0.10225 13.2794 0.10225 13.4355C0.10225 13.595 0.125757 13.7517 0.201709 13.8993C0.261085 14.0354 0.345793 14.1761 0.458473 14.2844L0.458376 14.2845L0.462436 14.288C0.57923 14.389 0.712174 14.4828 0.860948 14.5424C1.01087 14.6025 1.18144 14.6251 1.3358 14.6251C1.49656 14.6251 1.65439 14.5895 1.80809 14.5326L1.80811 14.5327L1.81065 14.5317C1.95942 14.4721 2.09346 14.3779 2.20193 14.2736L8.54155 8.18026C8.65326 8.07289 8.739 7.94279 8.79973 7.8027L8.79977 7.80272L8.80085 7.80002C8.86024 7.65161 8.89778 7.49854 8.89778 7.34216C8.89778 7.18604 8.86037 7.03226 8.79973 6.89239C8.739 6.7523 8.65326 6.6222 8.54155 6.51483L2.20192 0.421481L2.20195 0.421453L2.19991 0.419595C1.96615 0.206747 1.66069 0.10227 1.347 0.10227C1.02856 0.10227 0.723359 0.231477 0.503275 0.443012C0.271859 0.665439 0.1476 0.949301 0.147054 1.25754C0.135258 1.56728 0.25961 1.86248 0.478908 2.08497Z" fill="#181725" stroke="#181725" stroke-width="0.2"/>
</svg>
