<svg width="15" height="15" viewBox="0 0 15 15" fill="none" xmlns="http://www.w3.org/2000/svg">
<path d="M14.5781 12.8431L14.5772 12.8422L9.99025 8.42248L9.99 8.42225L8.95435 7.43742L14.5771 2.03309C14.6951 1.91968 14.7913 1.79323 14.8519 1.6534C14.9115 1.51601 14.9477 1.36602 14.9477 1.21484C14.9477 1.05644 14.9243 0.904973 14.8512 0.763607C14.7923 0.628167 14.709 0.490384 14.6 0.385601L14.6 0.38555L14.598 0.383757C14.4811 0.282694 14.3503 0.190808 14.2057 0.132899C14.0606 0.0747549 13.8934 0.0521954 13.7402 0.0521954C13.5838 0.0521954 13.4288 0.0868905 13.276 0.14339L13.276 0.143372L13.2747 0.143893C13.1301 0.201801 12.9987 0.293888 12.8919 0.396596L6.4176 6.61937C6.30908 6.72367 6.22526 6.85057 6.16566 6.98807L6.16564 6.98806L6.16509 6.98944C6.10617 7.13669 6.06984 7.28631 6.06984 7.43762C6.06984 7.5888 6.1061 7.73879 6.16566 7.87617C6.22526 8.01367 6.30908 8.14057 6.4176 8.24487L12.8919 14.4676L12.8919 14.4677L12.8929 14.4686C13.1209 14.6762 13.4199 14.7791 13.7288 14.7791C14.0401 14.7791 14.3389 14.6526 14.5542 14.4457C14.7811 14.2276 14.9017 13.9508 14.902 13.6504C14.9137 13.3494 14.793 13.0612 14.5781 12.8431Z" fill="#B3B3B3" stroke="#B3B3B3" stroke-width="0.1"/>
<path d="M0.421888 1.98818L0.422846 1.98913L5.00975 6.40884L5.01 6.40908L6.04565 7.39391L0.422892 12.7982C0.3049 12.9116 0.208694 13.0381 0.148078 13.1779C0.0885187 13.3153 0.0522591 13.4653 0.0522591 13.6165C0.0522591 13.7749 0.0756957 13.9264 0.14881 14.0677C0.207717 14.2032 0.290997 14.3409 0.400015 14.4457L0.399965 14.4458L0.402038 14.4476C0.518868 14.5486 0.649664 14.6405 0.794263 14.6984C0.939448 14.7566 1.10662 14.7791 1.25979 14.7791C1.41622 14.7791 1.57117 14.7444 1.724 14.6879L1.72401 14.688L1.72531 14.6874C1.8699 14.6295 2.00126 14.5374 2.10812 14.4347L8.58241 8.21195C8.69092 8.10765 8.77474 7.98075 8.83434 7.84326L8.83436 7.84327L8.83491 7.84189C8.89384 7.69464 8.93016 7.54502 8.93016 7.39371C8.93016 7.24253 8.8939 7.09254 8.83434 6.95515C8.77474 6.81766 8.69092 6.69076 8.58241 6.58646L2.10812 0.363679L2.10813 0.363666L2.10709 0.362717C1.87906 0.155082 1.5801 0.0522603 1.27123 0.0522603C0.959923 0.0522603 0.661097 0.178705 0.445771 0.385667C0.218939 0.603686 0.0982929 0.880565 0.098015 1.18088C0.0862717 1.48197 0.206965 1.77013 0.421888 1.98818Z" fill="#B3B3B3" stroke="#B3B3B3" stroke-width="0.1"/>
</svg>
