<svg width="48" height="56" viewBox="0 0 48 56" fill="none" xmlns="http://www.w3.org/2000/svg">
<path fill-rule="evenodd" clip-rule="evenodd" d="M32.6421 4.34102C32.8817 2.2004 31.3641 0.267454 29.2235 0.0278321C27.0829 -0.227764 25.1499 1.30581 24.9103 3.44643C24.6227 5.89057 25.0221 8.81395 25.5333 11.8172C26.9551 12.2485 28.3289 12.8715 29.6069 13.6064C30.9807 10.3635 32.3226 7.15257 32.6421 4.34102ZM47.6743 13.7342C46.8277 11.7533 44.5273 10.8587 42.5464 11.7054C39.9425 12.8396 37.2428 15.0601 34.5271 17.3445C35.5495 18.3509 36.508 19.4851 37.3227 20.7151C40.4058 20.3318 43.3611 19.8685 45.6455 18.878C47.6264 17.9994 48.537 15.6991 47.6743 13.7342ZM41.1087 3.28668C39.3834 2.0087 36.9393 2.36015 35.6613 4.08542C33.7124 6.70528 32.4025 10.6191 30.9807 14.4371C31.4599 14.7566 31.9072 15.0761 32.3386 15.4115C32.6581 15.6671 32.9935 15.9387 33.329 16.2103C36.5878 13.7501 39.9745 11.3539 41.9234 8.73408C43.2014 7.0088 42.834 4.56466 41.1087 3.28668Z" fill="#53B175"/>
<path d="M33.6965 34.5653C32.4984 35.8593 31.2204 37.0574 29.8625 38.2235C27.9615 39.8689 26.0286 41.4664 24.0637 43C21.955 41.706 20.4374 41.051 20.1818 41.3865C19.9582 41.69 20.8368 42.8083 22.4183 44.262C17.1147 48.2077 11.5075 51.6902 5.48504 54.5497C4.54253 54.997 3.55209 55.3165 2.57763 55.668C2.32203 55.7638 2.05046 55.7638 1.93864 55.7798C0.405062 55.9555 -0.0582056 55.5402 0.00569343 54.1344C0.197391 49.7573 1.55525 45.6518 2.96102 41.5622C3.34442 40.444 3.74379 39.3258 4.15913 38.2075C6.28377 39.5015 7.80138 40.1724 8.05697 39.837C8.32854 39.4695 7.05056 37.9999 4.90994 36.1628C6.44352 32.201 8.15282 28.3032 10.1656 24.5651C14.1913 27.5524 17.7696 29.5173 18.169 28.9741C18.5684 28.431 15.613 25.5396 11.5395 22.5203L11.3637 22.3925C12.0666 21.1944 12.8015 19.9963 13.5842 18.8302C14.5587 17.3605 15.7568 16.0186 16.9389 14.7087C18.5204 12.9674 20.5652 12.3764 22.8496 12.8875C30.166 14.517 35.246 18.7183 37.6422 25.923C38.1215 27.3926 37.6902 28.8304 36.9393 30.1563C36.4281 31.0508 35.869 31.8975 35.246 32.6962C31.3801 29.8687 28.0254 28.0476 27.642 28.5588C27.2746 29.07 29.9424 31.7058 33.6965 34.5653Z" fill="#F3603F"/>
</svg>
