<svg width="19" height="19" viewBox="0 0 19 19" fill="none" xmlns="http://www.w3.org/2000/svg">
<path d="M8.34973 14.6116C9.17206 14.6116 9.98633 14.4497 10.7461 14.135C11.5058 13.8203 12.1961 13.359 12.7776 12.7776C13.359 12.1961 13.8203 11.5058 14.135 10.7461C14.4497 9.98633 14.6116 9.17206 14.6116 8.34973C14.6116 7.52741 14.4497 6.71313 14.135 5.9534C13.8203 5.19368 13.359 4.50337 12.7776 3.9219C12.1961 3.34042 11.5058 2.87918 10.7461 2.56449C9.98633 2.2498 9.17206 2.08783 8.34973 2.08783C6.68897 2.08783 5.09623 2.74756 3.9219 3.9219C2.74756 5.09623 2.08783 6.68897 2.08783 8.34973C2.08783 10.0105 2.74756 11.6032 3.9219 12.7776C5.09623 13.9519 6.68897 14.6116 8.34973 14.6116ZM14.9456 13.4699L18.6819 17.2062C18.7815 17.3025 18.8609 17.4177 18.9155 17.5451C18.9701 17.6725 18.9988 17.8094 18.9999 17.948C19.001 18.0866 18.9745 18.224 18.922 18.3522C18.8694 18.4804 18.7918 18.5969 18.6937 18.6948C18.5957 18.7927 18.4791 18.8701 18.3508 18.9225C18.2225 18.9749 18.0851 19.0012 17.9465 18.9999C17.8079 18.9986 17.671 18.9697 17.5437 18.9149C17.4164 18.8602 17.3013 18.7806 17.2051 18.6808L13.4688 14.9446C11.7911 16.2469 9.68017 16.8609 7.56569 16.6616C5.45121 16.4623 3.49217 15.4646 2.08736 13.8718C0.682548 12.2789 -0.0624229 10.2105 0.00410052 8.0877C0.0706239 5.96489 0.94364 3.94722 2.44543 2.44543C3.94722 0.94364 5.96489 0.0706239 8.0877 0.00410052C10.2105 -0.0624229 12.2789 0.682548 13.8718 2.08736C15.4646 3.49217 16.4623 5.45121 16.6616 7.56569C16.8609 9.68017 16.2469 11.7911 14.9446 13.4688L14.9456 13.4699Z" fill="#181B19"/>
</svg>
