<svg width="268" height="64" viewBox="0 0 268 64" fill="none" xmlns="http://www.w3.org/2000/svg">
<path fill-rule="evenodd" clip-rule="evenodd" d="M37.28 4.9578C37.5536 2.51304 35.8204 0.305454 33.3756 0.0317866C30.9309 -0.260125 28.7233 1.49135 28.4496 3.93611C28.1212 6.72752 28.5773 10.0663 29.1612 13.4962C30.7849 13.9888 32.354 14.7004 33.8135 15.5396C35.3825 11.836 36.9151 8.16883 37.28 4.9578ZM54.448 15.6856C53.4811 13.4233 50.8539 12.4016 48.5916 13.3685C45.6177 14.6639 42.5344 17.1999 39.4328 19.8088C40.6005 20.9582 41.6951 22.2536 42.6256 23.6584C46.1468 23.2205 49.522 22.6915 52.131 21.5603C54.3933 20.5568 55.4332 17.9296 54.448 15.6856ZM46.9496 3.75366C44.9791 2.2941 42.1877 2.69548 40.7282 4.66589C38.5023 7.65799 37.0063 12.1279 35.3825 16.4883C35.9299 16.8532 36.4407 17.2181 36.9333 17.6012C37.2982 17.8932 37.6813 18.2033 38.0645 18.5135C41.7864 15.7038 45.6542 12.9671 47.88 9.97504C49.3396 8.00463 48.92 5.21323 46.9496 3.75366Z" fill="white"/>
<path d="M38.4842 39.4764C37.1158 40.9542 35.6563 42.3226 34.1055 43.6544C31.9344 45.5336 29.7268 47.358 27.4827 49.1095C25.0745 47.6317 23.3412 46.8837 23.0493 47.2668C22.7939 47.6135 23.7973 48.8906 25.6035 50.5508C19.5464 55.0572 13.1425 59.0345 6.26437 62.3003C5.18794 62.8111 4.05678 63.176 2.94387 63.5774C2.65196 63.6869 2.3418 63.6869 2.21409 63.7051C0.462615 63.9058 -0.0664756 63.4314 0.00650236 61.8259C0.225436 56.8269 1.77622 52.1381 3.38174 47.4675C3.8196 46.1904 4.27572 44.9133 4.75007 43.6362C7.17659 45.114 8.90982 45.8802 9.20173 45.4971C9.51189 45.0775 8.05233 43.399 5.60756 41.3009C7.35904 36.7762 9.3112 32.3246 11.61 28.0553C16.2076 31.4671 20.2944 33.7111 20.7505 33.0908C21.2066 32.4705 17.8314 29.1683 13.179 25.7201L12.9783 25.5741C13.7811 24.2058 14.6203 22.8374 15.5143 21.5056C16.6272 19.8271 17.9956 18.2945 19.3457 16.7985C21.1519 14.8098 23.4872 14.1348 26.0961 14.7186C34.4521 16.5796 40.2539 21.3779 42.9906 29.6061C43.5379 31.2846 43.0453 32.9266 42.1878 34.4409C41.604 35.4626 40.9654 36.4296 40.2539 37.3418C35.8387 34.1125 32.0074 32.0326 31.5695 32.6165C31.1499 33.2003 34.1967 36.2106 38.4842 39.4764Z" fill="white"/>
<path d="M92.3054 9.72858C86.5219 9.72858 82.7635 12.0456 80.483 16.4426H80.3553V13.7059C80.3553 11.7355 78.7498 10.1482 76.7794 10.1482C74.8089 10.1482 73.2217 11.7355 73.2217 13.7059V43.9735C73.2217 45.9439 74.8089 47.5494 76.7794 47.5494H77.126C79.0964 47.5494 80.7019 45.9439 80.7019 43.9735V25.9479C80.7019 20.055 84.0772 16.1324 89.7147 16.1324C95.1881 16.1324 97.8153 19.3069 97.8153 24.981V43.9735C97.8153 45.9439 99.4025 47.5494 101.373 47.5494H101.72C103.69 47.5494 105.277 45.9439 105.277 43.9735V23.5762C105.277 14.9648 100.57 9.72858 92.3054 9.72858Z" fill="white"/>
<path d="M128.357 9.65554C117.902 9.65554 111.079 17.2817 111.079 28.9765C111.079 40.6894 117.829 47.9872 128.667 47.9872C135.381 47.9872 140.927 45.0134 143.427 40.3793C144.357 38.6825 143.08 36.5844 141.146 36.5844H139.249C138.3 36.5844 137.479 37.1318 136.986 37.9528C135.545 40.434 132.516 41.9301 128.813 41.9301C122.683 41.9301 118.614 37.6609 118.614 31.1841V30.7462H142.514C143.937 30.7462 145.105 29.5785 145.105 28.1555V28.119C145.105 16.7891 138.628 9.65554 128.357 9.65554ZM118.65 25.437C119.07 19.69 122.956 15.7492 128.338 15.7492C133.775 15.7492 137.461 19.617 137.625 25.437H118.65Z" fill="white"/>
<path d="M179.897 34.9789H177.909C176.832 34.9789 175.902 35.654 175.5 36.6574C174.205 39.9597 171.249 41.7294 167.053 41.7294C161.051 41.7294 157 36.8946 157 28.8488C157 20.9854 160.996 15.9681 167.017 15.9681C171.359 15.9681 174.26 18.121 175.446 21.1861C175.847 22.2078 176.778 22.9193 177.89 22.9193H179.879C181.612 22.9193 182.908 21.2226 182.342 19.5806C180.426 13.943 174.953 9.65554 166.944 9.65554C156.38 9.65554 149.411 17.2088 149.411 28.8488C149.411 40.6894 156.398 47.9872 167.017 47.9872C174.625 47.9872 180.28 44.2654 182.36 38.3724C182.944 36.7121 181.667 34.9789 179.897 34.9789Z" fill="white"/>
<path d="M202.302 41.6746C202.174 41.6564 202.028 41.6382 201.9 41.6382C199.437 41.3462 198.288 39.8137 198.288 36.9311V16.0411H202.502C204.144 16.0411 205.458 14.7093 205.458 13.0855C205.458 11.4617 204.144 10.1481 202.502 10.1481H198.288V5.4593C198.288 4.43761 197.868 3.50714 197.193 2.8321C196.518 2.15705 195.606 1.73743 194.566 1.73743C192.522 1.73743 190.862 3.41592 190.862 5.4593V10.1481H188.636C187.013 10.1481 185.681 11.4617 185.681 13.0855C185.681 14.7093 187.013 16.0411 188.636 16.0411H190.862V37.6973C190.862 44.9222 193.745 47.7866 201.225 47.7866C201.243 47.7866 201.262 47.7866 201.262 47.7866C202.119 47.7866 202.904 47.5311 203.56 47.075C203.579 47.075 203.597 47.0568 203.597 47.0568C204.363 46.5094 204.874 45.6155 204.874 44.612C204.874 43.116 203.761 41.8571 202.302 41.6746Z" fill="white"/>
<path d="M226.567 9.65554C220.728 9.65554 215.912 12.0273 213.449 15.6945C213.048 16.3148 212.847 16.9898 212.847 17.6466C212.847 19.4711 214.306 21.1678 216.368 21.1678C217.572 21.1678 218.722 20.5293 219.287 19.4711C220.491 17.2088 223.064 15.8222 226.366 15.8222C231.365 15.8222 234.211 18.1757 234.211 22.4449V22.9011C234.211 24.2694 233.153 25.4005 231.785 25.4735L224.122 25.9114C214.89 26.4952 209.836 30.2901 209.836 36.8399C209.836 43.5173 215 47.9143 222.48 47.9143C227.57 47.9143 232.223 45.3783 234.284 41.3098H234.448V43.9735C234.448 44.9587 234.85 45.8526 235.488 46.5094C236.145 47.148 237.039 47.5494 238.024 47.5494C239.995 47.5494 241.582 45.9439 241.582 43.9735V21.8976C241.582 14.4903 235.689 9.65554 226.567 9.65554ZM234.211 33.5011C234.211 38.4089 230.015 41.9666 224.469 41.9666C220.163 41.9666 217.371 39.9049 217.371 36.6939C217.371 33.3916 220.035 31.4942 225.125 31.1841L234.211 30.5637V33.5011Z" fill="white"/>
<path d="M265.391 9.76504C260.976 9.76504 257.546 12.2828 256.36 16.4425H256.232V13.7058C256.232 11.7354 254.627 10.1482 252.675 10.1482C250.704 10.1482 249.099 11.7354 249.099 13.7058V43.8093C249.099 44.831 249.518 45.7797 250.193 46.4547C250.868 47.1298 251.799 47.5494 252.839 47.5494C254.9 47.5494 256.579 45.8709 256.579 43.8093V25.2364C256.579 19.9637 259.681 16.552 264.607 16.552C264.807 16.552 265.026 16.552 265.227 16.5702C266.759 16.625 268 15.3661 268 13.8336V12.3922C268 10.9509 266.832 9.76504 265.391 9.76504Z" fill="white"/>
<path d="M204.874 44.612C204.874 45.6154 204.363 46.5094 203.597 47.0568C203.597 47.0568 203.579 47.075 203.561 47.075C203.086 47.4034 202.521 47.5858 201.9 47.5858C200.24 47.5858 198.908 46.254 198.908 44.612C198.908 42.97 200.24 41.6381 201.9 41.6381C202.028 41.6381 202.174 41.6564 202.302 41.6746C203.761 41.8571 204.874 43.1159 204.874 44.612Z" fill="white"/>
</svg>
