<svg width="16" height="16" viewBox="0 0 16 16" fill="none" xmlns="http://www.w3.org/2000/svg">
<path d="M15.5565 13.7112L15.5556 13.7103L10.6561 8.98939L10.6559 8.98916L9.54551 7.93326L15.5556 2.15666C15.6812 2.03589 15.7835 1.9014 15.8479 1.75288C15.9112 1.6067 15.9498 1.44724 15.9498 1.28663C15.9498 1.11791 15.9248 0.957016 15.8472 0.80701C15.7844 0.662711 15.6958 0.516154 15.58 0.404844L15.5801 0.404794L15.5781 0.403068C15.4535 0.295341 15.3143 0.197608 15.1607 0.136062C15.0064 0.0742902 14.8286 0.0502536 14.6655 0.0502536C14.4992 0.0502536 14.3343 0.0871326 14.1715 0.147321L14.1715 0.147304L14.1703 0.147805C14.0166 0.20935 13.8769 0.307278 13.7631 0.416588L13.798 0.452837L13.7631 0.416588L6.84766 7.06341C6.73234 7.17426 6.6432 7.30918 6.57979 7.45546L6.57977 7.45545L6.57924 7.45677C6.51649 7.6136 6.4779 7.77271 6.4779 7.93345C6.4779 8.09406 6.51642 8.25353 6.57979 8.3997C6.6432 8.54598 6.73234 8.6809 6.84766 8.79175L13.7631 15.4386L13.7631 15.4386L13.7641 15.4395C14.0066 15.6603 14.3245 15.7697 14.6532 15.7697C14.9843 15.7697 15.3021 15.6352 15.5311 15.4151C15.7724 15.1832 15.9006 14.8888 15.9009 14.5695C15.9134 14.2495 15.7852 13.9431 15.5565 13.7112Z" fill="#181725" stroke="#181725" stroke-width="0.1"/>
<path d="M0.44346 2.10873L0.444382 2.10964L5.34386 6.83054L5.3441 6.83076L6.45449 7.88667L0.444426 13.6633C0.318774 13.784 0.216507 13.9185 0.15212 14.067C0.0887517 14.2132 0.0502266 14.3727 0.0502266 14.5333C0.0502266 14.702 0.0752013 14.8629 0.152824 15.0129C0.215565 15.1572 0.30418 15.3038 0.419991 15.4151L0.419943 15.4151L0.421938 15.4169C0.546473 15.5246 0.685657 15.6223 0.839338 15.6839C0.993582 15.7456 1.1714 15.7697 1.33454 15.7697C1.50082 15.7697 1.66567 15.7328 1.82848 15.6726L1.82849 15.6726L1.82974 15.6721C1.98342 15.6106 2.12314 15.5126 2.23687 15.4033L2.20203 15.3671L2.23687 15.4033L9.15234 8.75651C9.26767 8.64567 9.3568 8.51075 9.42021 8.36447L9.42023 8.36448L9.42076 8.36315C9.48352 8.20633 9.5221 8.04721 9.5221 7.88648C9.5221 7.72586 9.48358 7.5664 9.42021 7.42022C9.3568 7.27394 9.26767 7.13903 9.15234 7.02818L2.23687 0.381355L2.23688 0.381343L2.23588 0.380429C1.99344 0.159671 1.67547 0.0502508 1.34676 0.0502507C1.0157 0.0502507 0.69787 0.184732 0.468864 0.404842C0.227576 0.636756 0.0993678 0.931132 0.0991002 1.25039C0.0865893 1.57039 0.214842 1.87679 0.44346 2.10873Z" fill="#181725" stroke="#181725" stroke-width="0.1"/>
</svg>
