<svg width="19" height="19" viewBox="0 0 19 19" fill="none" xmlns="http://www.w3.org/2000/svg">
<path d="M10.9656 4.52527L10.7019 4.26115V4.63435V12.2908C10.7019 12.6097 10.5752 12.9156 10.3497 13.1412C10.1242 13.3667 9.81826 13.4934 9.4993 13.4934C9.18033 13.4934 8.87443 13.3667 8.64889 13.1412C8.42335 12.9156 8.29664 12.6097 8.29664 12.2908V4.63435V4.26138L8.03304 4.52523L6.51188 6.04774C6.51186 6.04776 6.51185 6.04777 6.51183 6.04779C6.28598 6.27345 5.97975 6.40016 5.66048 6.40005C5.34119 6.39994 5.03502 6.27299 4.80933 6.04714C4.58363 5.82129 4.4569 5.51503 4.45702 5.19574C4.45713 4.87645 4.58407 4.57028 4.80993 4.34459L8.649 0.508227L8.64935 0.507875C8.76074 0.395849 8.89317 0.306948 9.03904 0.246284C9.1849 0.18562 9.34132 0.15439 9.4993 0.15439C9.65727 0.15439 9.81369 0.18562 9.95956 0.246284C10.1054 0.306948 10.2379 0.395849 10.3492 0.507876L10.3496 0.508208L14.1886 4.34587C14.1886 4.34589 14.1886 4.3459 14.1886 4.34592C14.3004 4.45774 14.389 4.59047 14.4494 4.73653C14.5099 4.88261 14.541 5.03917 14.5409 5.19727C14.5408 5.35536 14.5096 5.5119 14.4491 5.65794C14.3885 5.80398 14.2998 5.93667 14.188 6.04842C14.0762 6.16017 13.9434 6.2488 13.7973 6.30925C13.6512 6.3697 13.4947 6.40078 13.3366 6.40073C13.1785 6.40067 13.022 6.36948 12.8759 6.30893C12.7299 6.24837 12.5972 6.15965 12.4854 6.04782L10.9656 4.52527ZM2.71408 10.7034H2.55969V10.8577V16.2859V16.4403H2.71408H16.2845H16.4389V16.2859V10.8577V10.7034H16.2845H14.9275C14.6085 10.7034 14.3026 10.5766 14.0771 10.3511C13.8515 10.1256 13.7248 9.81967 13.7248 9.5007C13.7248 9.18174 13.8515 8.87584 14.0771 8.6503C14.3026 8.42476 14.6085 8.29805 14.9275 8.29805H16.2845C16.9634 8.29805 17.6144 8.56773 18.0945 9.04777C18.5745 9.5278 18.8442 10.1789 18.8442 10.8577V16.2859C18.8442 16.9648 18.5745 17.6159 18.0945 18.0959C17.6144 18.5759 16.9634 18.8456 16.2845 18.8456H2.71408C2.03521 18.8456 1.38414 18.5759 0.904108 18.0959C0.424072 17.6159 0.15439 16.9648 0.15439 16.2859V10.8577C0.15439 10.1789 0.424072 9.5278 0.904107 9.04777C1.38414 8.56773 2.03521 8.29805 2.71408 8.29805H4.07113C4.39009 8.29805 4.69599 8.42476 4.92153 8.6503C5.14707 8.87584 5.27378 9.18174 5.27378 9.5007C5.27378 9.81967 5.14707 10.1256 4.92153 10.3511C4.69599 10.5766 4.39009 10.7034 4.07113 10.7034H2.71408Z" fill="#181725" stroke="white" stroke-width="0.3"/>
</svg>
